<mxfile host="Electron" modified="2024-07-22T17:43:13.068Z" agent="Mozilla/5.0 (Windows NT 10.0; Win64; x64) AppleWebKit/537.36 (KHTML, like Gecko) draw.io/24.6.4 Chrome/124.0.6367.207 Electron/30.0.6 Safari/537.36" etag="NjN_6f_YMmQbMnvRgYL6" version="24.6.4" type="device">
  <diagram name="Страница — 1" id="I7zyKxKApoXWik42bozk">
    <mxGraphModel dx="1266" dy="835" grid="1" gridSize="10" guides="1" tooltips="1" connect="1" arrows="1" fold="1" page="1" pageScale="1" pageWidth="827" pageHeight="1169" math="0" shadow="0">
      <root>
        <mxCell id="0" />
        <mxCell id="1" parent="0" />
        <mxCell id="gHM0-fn9lfil4iBCAtTj-1" value="cardreader" style="rounded=0;whiteSpace=wrap;html=1;" vertex="1" parent="1">
          <mxGeometry x="150" y="30" width="120" height="30" as="geometry" />
        </mxCell>
        <mxCell id="gHM0-fn9lfil4iBCAtTj-2" value="checkprinter" style="rounded=0;whiteSpace=wrap;html=1;" vertex="1" parent="1">
          <mxGeometry x="450" y="390" width="120" height="30" as="geometry" />
        </mxCell>
        <mxCell id="gHM0-fn9lfil4iBCAtTj-3" value="display" style="rounded=0;whiteSpace=wrap;html=1;" vertex="1" parent="1">
          <mxGeometry x="40" y="480" width="230" height="50" as="geometry" />
        </mxCell>
        <mxCell id="gHM0-fn9lfil4iBCAtTj-4" value="Chelik" style="shape=umlActor;verticalLabelPosition=bottom;verticalAlign=top;html=1;outlineConnect=0;" vertex="1" parent="1">
          <mxGeometry x="20" y="15" width="30" height="60" as="geometry" />
        </mxCell>
        <mxCell id="gHM0-fn9lfil4iBCAtTj-5" value="deposit" style="rounded=0;whiteSpace=wrap;html=1;" vertex="1" parent="1">
          <mxGeometry x="390" y="270" width="120" height="40" as="geometry" />
        </mxCell>
        <mxCell id="gHM0-fn9lfil4iBCAtTj-10" value="" style="endArrow=classic;html=1;rounded=0;" edge="1" parent="1">
          <mxGeometry width="50" height="50" relative="1" as="geometry">
            <mxPoint x="70" y="70" as="sourcePoint" />
            <mxPoint x="70" y="120" as="targetPoint" />
          </mxGeometry>
        </mxCell>
        <mxCell id="gHM0-fn9lfil4iBCAtTj-33" value="1. ID?&lt;div&gt;9. this transaction&lt;/div&gt;" style="edgeLabel;html=1;align=center;verticalAlign=middle;resizable=0;points=[];" vertex="1" connectable="0" parent="gHM0-fn9lfil4iBCAtTj-10">
          <mxGeometry x="-0.56" y="-2" relative="1" as="geometry">
            <mxPoint x="52" y="9" as="offset" />
          </mxGeometry>
        </mxCell>
        <mxCell id="gHM0-fn9lfil4iBCAtTj-11" value="" style="endArrow=classic;html=1;rounded=0;" edge="1" parent="1">
          <mxGeometry width="50" height="50" relative="1" as="geometry">
            <mxPoint x="50" y="390" as="sourcePoint" />
            <mxPoint x="50" y="290" as="targetPoint" />
          </mxGeometry>
        </mxCell>
        <mxCell id="gHM0-fn9lfil4iBCAtTj-12" value="2. insert card" style="edgeLabel;html=1;align=center;verticalAlign=middle;resizable=0;points=[];" vertex="1" connectable="0" parent="gHM0-fn9lfil4iBCAtTj-11">
          <mxGeometry x="-0.02" y="-1" relative="1" as="geometry">
            <mxPoint as="offset" />
          </mxGeometry>
        </mxCell>
        <mxCell id="gHM0-fn9lfil4iBCAtTj-15" value="" style="endArrow=none;html=1;rounded=0;exitX=0.5;exitY=0.5;exitDx=0;exitDy=0;exitPerimeter=0;entryX=0;entryY=0.5;entryDx=0;entryDy=0;" edge="1" parent="1" source="gHM0-fn9lfil4iBCAtTj-4" target="gHM0-fn9lfil4iBCAtTj-1">
          <mxGeometry width="50" height="50" relative="1" as="geometry">
            <mxPoint x="350" y="450" as="sourcePoint" />
            <mxPoint x="400" y="400" as="targetPoint" />
          </mxGeometry>
        </mxCell>
        <mxCell id="gHM0-fn9lfil4iBCAtTj-16" value="" style="endArrow=classic;html=1;rounded=0;" edge="1" parent="1">
          <mxGeometry width="50" height="50" relative="1" as="geometry">
            <mxPoint x="70" y="30" as="sourcePoint" />
            <mxPoint x="130" y="30" as="targetPoint" />
          </mxGeometry>
        </mxCell>
        <mxCell id="gHM0-fn9lfil4iBCAtTj-17" value="3. action" style="edgeLabel;html=1;align=center;verticalAlign=middle;resizable=0;points=[];" vertex="1" connectable="0" parent="gHM0-fn9lfil4iBCAtTj-16">
          <mxGeometry x="-0.0333" y="-2" relative="1" as="geometry">
            <mxPoint as="offset" />
          </mxGeometry>
        </mxCell>
        <mxCell id="gHM0-fn9lfil4iBCAtTj-20" value="" style="endArrow=none;html=1;rounded=0;entryX=0.333;entryY=1.133;entryDx=0;entryDy=0;entryPerimeter=0;exitX=0.635;exitY=0.02;exitDx=0;exitDy=0;exitPerimeter=0;" edge="1" parent="1" source="gHM0-fn9lfil4iBCAtTj-3" target="gHM0-fn9lfil4iBCAtTj-1">
          <mxGeometry width="50" height="50" relative="1" as="geometry">
            <mxPoint x="350" y="450" as="sourcePoint" />
            <mxPoint x="400" y="400" as="targetPoint" />
          </mxGeometry>
        </mxCell>
        <mxCell id="gHM0-fn9lfil4iBCAtTj-21" value="" style="endArrow=classic;html=1;rounded=0;" edge="1" parent="1">
          <mxGeometry width="50" height="50" relative="1" as="geometry">
            <mxPoint x="230" y="140" as="sourcePoint" />
            <mxPoint x="230" y="280" as="targetPoint" />
          </mxGeometry>
        </mxCell>
        <mxCell id="gHM0-fn9lfil4iBCAtTj-22" value="4.are you identificated?" style="edgeLabel;html=1;align=center;verticalAlign=middle;resizable=0;points=[];" vertex="1" connectable="0" parent="gHM0-fn9lfil4iBCAtTj-21">
          <mxGeometry x="-0.2286" y="-1" relative="1" as="geometry">
            <mxPoint as="offset" />
          </mxGeometry>
        </mxCell>
        <mxCell id="gHM0-fn9lfil4iBCAtTj-24" value="" style="endArrow=none;html=1;rounded=0;exitX=0.909;exitY=0.02;exitDx=0;exitDy=0;exitPerimeter=0;entryX=0;entryY=0.75;entryDx=0;entryDy=0;" edge="1" parent="1" source="gHM0-fn9lfil4iBCAtTj-3" target="gHM0-fn9lfil4iBCAtTj-5">
          <mxGeometry width="50" height="50" relative="1" as="geometry">
            <mxPoint x="350" y="450" as="sourcePoint" />
            <mxPoint x="400" y="400" as="targetPoint" />
          </mxGeometry>
        </mxCell>
        <mxCell id="gHM0-fn9lfil4iBCAtTj-25" value="" style="endArrow=classic;html=1;rounded=0;" edge="1" parent="1">
          <mxGeometry width="50" height="50" relative="1" as="geometry">
            <mxPoint x="260" y="420" as="sourcePoint" />
            <mxPoint x="310" y="350" as="targetPoint" />
          </mxGeometry>
        </mxCell>
        <mxCell id="gHM0-fn9lfil4iBCAtTj-26" value="5.deposit info&lt;div&gt;10. change deposit&lt;/div&gt;&lt;div&gt;11. deposit info&lt;/div&gt;" style="edgeLabel;html=1;align=center;verticalAlign=middle;resizable=0;points=[];" vertex="1" connectable="0" parent="gHM0-fn9lfil4iBCAtTj-25">
          <mxGeometry x="0.6676" y="-4" relative="1" as="geometry">
            <mxPoint as="offset" />
          </mxGeometry>
        </mxCell>
        <mxCell id="gHM0-fn9lfil4iBCAtTj-27" value="" style="endArrow=classic;html=1;rounded=0;" edge="1" parent="1">
          <mxGeometry width="50" height="50" relative="1" as="geometry">
            <mxPoint x="440" y="330" as="sourcePoint" />
            <mxPoint x="320" y="460" as="targetPoint" />
          </mxGeometry>
        </mxCell>
        <mxCell id="gHM0-fn9lfil4iBCAtTj-28" value="6.deposit info" style="edgeLabel;html=1;align=center;verticalAlign=middle;resizable=0;points=[];" vertex="1" connectable="0" parent="gHM0-fn9lfil4iBCAtTj-27">
          <mxGeometry x="0.0153" y="-1" relative="1" as="geometry">
            <mxPoint as="offset" />
          </mxGeometry>
        </mxCell>
        <mxCell id="gHM0-fn9lfil4iBCAtTj-31" value="" style="endArrow=none;html=1;rounded=0;exitX=0.465;exitY=-0.04;exitDx=0;exitDy=0;exitPerimeter=0;" edge="1" parent="1" source="gHM0-fn9lfil4iBCAtTj-3" target="gHM0-fn9lfil4iBCAtTj-4">
          <mxGeometry width="50" height="50" relative="1" as="geometry">
            <mxPoint x="350" y="450" as="sourcePoint" />
            <mxPoint x="400" y="400" as="targetPoint" />
          </mxGeometry>
        </mxCell>
        <mxCell id="gHM0-fn9lfil4iBCAtTj-32" value="7.deposit info&lt;div&gt;8.choice transaction&lt;/div&gt;&lt;div&gt;12. deposit info&lt;/div&gt;" style="endArrow=classic;html=1;rounded=0;" edge="1" parent="1">
          <mxGeometry x="-0.0162" y="-21" width="50" height="50" relative="1" as="geometry">
            <mxPoint x="130" y="290" as="sourcePoint" />
            <mxPoint x="90" y="160" as="targetPoint" />
            <mxPoint as="offset" />
          </mxGeometry>
        </mxCell>
        <mxCell id="gHM0-fn9lfil4iBCAtTj-39" value="" style="endArrow=none;html=1;rounded=0;exitX=0.825;exitY=0.975;exitDx=0;exitDy=0;exitPerimeter=0;entryX=0.842;entryY=-0.1;entryDx=0;entryDy=0;entryPerimeter=0;" edge="1" parent="1" source="gHM0-fn9lfil4iBCAtTj-5" target="gHM0-fn9lfil4iBCAtTj-2">
          <mxGeometry width="50" height="50" relative="1" as="geometry">
            <mxPoint x="290" y="440" as="sourcePoint" />
            <mxPoint x="340" y="390" as="targetPoint" />
          </mxGeometry>
        </mxCell>
        <mxCell id="gHM0-fn9lfil4iBCAtTj-40" value="" style="endArrow=classic;html=1;rounded=0;" edge="1" parent="1">
          <mxGeometry width="50" height="50" relative="1" as="geometry">
            <mxPoint x="530" y="300" as="sourcePoint" />
            <mxPoint x="570" y="370" as="targetPoint" />
          </mxGeometry>
        </mxCell>
        <mxCell id="gHM0-fn9lfil4iBCAtTj-41" value="13.action print" style="edgeLabel;html=1;align=center;verticalAlign=middle;resizable=0;points=[];" vertex="1" connectable="0" parent="gHM0-fn9lfil4iBCAtTj-40">
          <mxGeometry x="0.0585" y="2" relative="1" as="geometry">
            <mxPoint as="offset" />
          </mxGeometry>
        </mxCell>
      </root>
    </mxGraphModel>
  </diagram>
</mxfile>
